HIERARCHY
ROOT Hips
{
	OFFSET -0.179506 -22.333345 2.821913
	CHANNELS 6 Xposition Yposition Zposition Zrotation Yrotation Xrotation 
	JOINT LeftUpLeg
	{
		OFFSET 6.951974 -9.140623 -0.681533
		CHANNELS 3 Zrotation Yrotation Xrotation
		JOINT LeftLeg
		{
			OFFSET 3.427654 -37.519855 -0.449580
			CHANNELS 3 Zrotation Yrotation Xrotation
			JOINT LeftFoot
			{
				OFFSET -1.359570 -39.796059 -4.369333
				CHANNELS 3 Zrotation Yrotation Xrotation
				JOINT LeftToe
				{
					OFFSET 2.635814 -5.579078 11.928840
					CHANNELS 3 Zrotation Yrotation Xrotation
					End Site
					{
						OFFSET 0.000000 0.000000 0.000000
					}
				}
			}
		}
	}
	JOINT RightUpLeg
	{
		OFFSET -6.767048 -9.052170 -0.431982
		CHANNELS 3 Zrotation Yrotation Xrotation
		JOINT RightLeg
		{
			OFFSET -3.829005 -38.256897 -0.885003
			CHANNELS 3 Zrotation Yrotation Xrotation
			JOINT RightFoot
			{
				OFFSET 1.577377 -39.841461 -4.231180
				CHANNELS 3 Zrotation Yrotation Xrotation
				JOINT RightToe
				{
					OFFSET -2.537174 -4.814398 12.334795
					CHANNELS 3 Zrotation Yrotation Xrotation
					End Site
					{
						OFFSET 0.000000 0.000000 0.000000
					}
				}
			}
		}
	}
	JOINT Spine
	{
		OFFSET -0.253288 10.896323 -2.669631
		CHANNELS 3 Zrotation Yrotation Xrotation
		JOINT Spine1
		{
			OFFSET 0.548704 13.518043 0.109247
			CHANNELS 3 Zrotation Yrotation Xrotation
			JOINT Spine2
			{
				OFFSET 0.145701 5.292222 2.542457
				CHANNELS 3 Zrotation Yrotation Xrotation
				JOINT Neck
				{
					OFFSET -0.277840 21.387037 -4.285703
					CHANNELS 3 Zrotation Yrotation Xrotation
					JOINT Head
					{
						OFFSET 0.515184 6.496960 5.134897
						CHANNELS 3 Zrotation Yrotation Xrotation
						End Site
						{
							OFFSET 0.000000 0.000000 0.000000
						}
					}
				}
				JOINT LeftShoulder
				{
					OFFSET 7.884473 12.174932 -3.408961
					CHANNELS 3 Zrotation Yrotation Xrotation
					JOINT LeftArm
					{
						OFFSET 9.097692 3.046888 -0.886815
						CHANNELS 3 Zrotation Yrotation Xrotation
						JOINT LeftForeArm
						{
							OFFSET 25.961220 -1.277207 -2.745643
							CHANNELS 3 Zrotation Yrotation Xrotation
							JOINT LeftHand
							{
								OFFSET 24.923361 0.898606 -0.117091
								CHANNELS 3 Zrotation Yrotation Xrotation
								End Site
								{
									OFFSET 0.000000 0.000000 0.000000
								}
							}
						}
					}
				}
				JOINT RightShoulder
				{
					OFFSET -8.175920 11.883285 -3.861528
					CHANNELS 3 Zrotation Yrotation Xrotation
					JOINT RightArm
					{
						OFFSET -9.601238 3.255117 -0.914307
						CHANNELS 3 Zrotation Yrotation Xrotation
						JOINT RightForeArm
						{
							OFFSET -25.374195 -1.332924 -2.140099
							CHANNELS 3 Zrotation Yrotation Xrotation
							JOINT RightHand
							{
								OFFSET -25.529810 0.777228 -0.555919
								CHANNELS 3 Zrotation Yrotation Xrotation
								End Site
								{
									OFFSET 0.000000 0.000000 0.000000
								}
							}
						}
					}
				}
			}
		}
	}
}
MOTION
Frames: 6
Frame Time: 0.033333
-27.562330 -63.721016 86.852097 -124.071166 -2.002125 96.519708 -7.012392 -9.249904 -4.087598 -4.561971 -9.906129 28.451757 7.410660 22.201896 -36.674983 nan nan nan -7.275549 2.466733 -28.785029 5.023824 -6.690825 74.339244 1.782257 -4.662074 -9.740466 nan nan nan -1.969793 -0.437707 15.670865 5.880203 -2.239022 10.920886 1.568565 -2.864335 -5.780363 -1.293908 -3.919082 -14.044111 1.753999 -2.699213 -7.536479 -22.005594 -0.188715 -2.448289 -58.469028 -2.825326 21.757944 33.208954 -73.066500 -19.362728 9.831193 -33.474454 -15.526938 26.163184 1.478192 -4.888419 41.729325 -10.019286 16.126106 -10.948630 58.287637 -3.148657 -8.391180 29.172973 -18.237692 
-26.233160 -64.744598 86.796425 -124.534676 -2.355889 96.599220 -7.227010 -11.009477 -6.996833 -5.032395 -8.180822 31.230881 7.619181 22.709285 -35.827792 nan nan nan -7.338998 2.211304 -26.376848 5.442644 -5.838436 73.725168 1.516573 -4.915820 -8.380807 nan nan nan -2.151466 0.624596 15.420459 5.725634 -2.382686 10.893184 1.527225 -2.645395 -5.580154 -1.282973 -4.679598 -14.180133 1.855209 -2.622245 -7.402918 -22.557911 -0.191483 -2.367826 -58.259989 -1.913564 21.796408 29.944248 -71.506025 -16.556009 10.223716 -33.196758 -16.081858 26.708635 1.607777 -5.150375 41.477680 -9.640507 16.181597 -11.744434 58.658907 -4.296131 -8.653842 29.183367 -18.280404 
-24.976351 -65.691666 86.841919 -125.347562 -2.704804 96.505478 -7.131467 -12.759296 -9.406192 -6.016161 -6.207398 33.493481 7.322078 23.334463 -35.058545 nan nan nan -7.407890 2.174909 -23.471665 5.769465 -4.927316 72.539501 1.253288 -4.890406 -7.265180 nan nan nan -2.389934 1.951097 15.118747 5.514684 -2.447784 11.132990 1.511609 -2.442015 -5.525414 -1.152207 -5.263077 -13.912083 1.933255 -2.582158 -7.585937 -23.105869 -0.135909 -1.979918 -58.043336 -1.138020 21.457778 27.264258 -69.915993 -14.193000 10.221639 -32.981533 -16.021194 27.219435 1.810217 -5.020864 41.387568 -9.180434 15.921300 -12.602185 58.926751 -5.282917 -9.009553 29.334390 -17.956143 
-23.729782 -66.569489 86.976089 -126.206132 -2.817970 96.127806 -6.633606 -13.928478 -11.253463 -7.099861 -4.493355 35.359569 7.182651 23.937195 -34.684490 nan nan nan -7.127873 2.113801 -20.045670 5.978531 -3.891037 70.841038 1.094210 -4.752708 -6.375563 nan nan nan -2.438730 3.368350 15.059222 5.358208 -2.399268 11.423390 1.515663 -2.321316 -5.567360 -0.835921 -5.643817 -13.392078 1.831648 -2.732787 -7.885274 -23.455327 0.063229 -1.459176 -57.978197 -0.424619 20.877422 24.380483 -68.440799 -11.380804 9.997672 -32.974888 -15.893272 27.463094 2.001367 -4.920489 41.500456 -8.807568 15.578124 -13.034842 59.176508 -5.755675 -9.117936 28.964954 -17.722771 
-22.568253 -67.386406 87.170120 -126.870910 -2.720984 95.223310 -6.218102 -14.401978 -11.946899 -7.755087 -3.374631 36.556667 7.236914 24.351439 -34.732905 nan nan nan -6.651271 1.871649 -15.692471 6.079132 -2.841283 68.426796 1.262178 -4.719210 -5.866267 nan nan nan -2.080183 4.549452 15.362776 5.205672 -2.363922 11.984925 1.428080 -2.167246 -5.647758 -0.568751 -5.784167 -12.932778 1.523555 -3.188648 -8.180261 -23.693684 0.326418 -1.040284 -58.055171 0.319355 20.264632 22.062105 -67.116961 -8.842298 9.398211 -33.064690 -15.591994 27.511839 2.226642 -4.906482 41.723327 -8.475668 15.137091 -13.314162 59.621781 -5.913444 -8.617374 28.541447 -17.296550 
-21.301212 -68.201645 87.400642 -127.792821 -2.491699 94.327549 -5.794622 -14.181613 -12.339241 -7.900751 -2.461919 37.218892 7.485145 24.477510 -34.745848 nan nan nan -6.035926 2.048884 -11.485226 6.297148 -1.785938 65.713665 1.569597 -4.894947 -5.250544 nan nan nan -1.730247 5.635516 15.757857 5.082629 -2.135861 12.720738 1.293766 -1.848051 -5.778598 -0.135491 -5.569444 -12.911567 0.981501 -3.962919 -8.319085 -23.596467 0.686056 -0.813326 -58.361486 0.985098 19.798870 20.288252 -65.972500 -6.880128 8.033271 -32.394029 -14.263101 27.377256 2.545325 -4.946697 42.105782 -8.095543 15.048096 -14.148439 60.137184 -6.607328 -8.307278 28.142184 -17.436628 
